<svg xmlns="http://www.w3.org/2000/svg" width="38" height="38" viewBox="0 0 24 24" fill="none">
  <path
    fill="#ffffff"
    d="M12 .297c-6.63 0-12 5.373-12 12 0 5.303 
       3.438 9.8 8.205 11.385.6.113.82-.258.82-.577v-2.234
       c-3.338.726-4.033-1.416-4.033-1.416-.546-1.387-1.333-1.756-1.333-1.756
       -1.089-.744.083-.729.083-.729 1.205.084 1.84 1.237 1.84 1.237
       1.07 1.835 2.809 1.305 3.495.998.107-.775.418-1.305.762-1.605
       -2.665-.305-5.466-1.332-5.466-5.93 0-1.311.469-2.381 1.236-3.221
       -.124-.303-.536-1.524.117-3.176 0 0 1.008-.322 3.3 1.23
       .957-.266 1.983-.399 3.003-.404 1.02.005 2.047.138 3.006.404
       2.291-1.552 3.297-1.23 3.297-1.23.655 1.652.243 2.873.12 3.176
       .77.84 1.234 1.91 1.234 3.221 0 4.609-2.804 5.624-5.476 5.921
       .43.372.823 1.102.823 2.222v3.293c0 .322.216.694.825.576
       C20.565 22.092 24 17.592 24 12.297c0-6.627-5.373-12-12-12"
  />
</svg>
